<svg width="64" height="64" viewBox="0 0 64 64" fill="none" xmlns="http://www.w3.org/2000/svg">
  <circle cx="32" cy="32" r="30" fill="#667eea" opacity="0.1"/>
  <path d="M32 12C28.6863 12 26 14.6863 26 18V32C26 35.3137 28.6863 38 32 38C35.3137 38 38 35.3137 38 32V18C38 14.6863 35.3137 12 32 12Z" fill="#667eea"/>
  <path d="M20 28C20 28.5523 20.4477 29 21 29H23C23.5523 29 24 28.5523 24 28C24 27.4477 23.5523 27 23 27H21C20.4477 27 20 27.4477 20 28Z" fill="#667eea"/>
  <path d="M40 28C40 28.5523 40.4477 29 41 29H43C43.5523 29 44 28.5523 44 28C44 27.4477 43.5523 27 43 27H41C40.4477 27 40 27.4477 40 28Z" fill="#667eea"/>
  <path d="M32 42V48" stroke="#667eea" stroke-width="3" stroke-linecap="round"/>
  <path d="M24 48H40" stroke="#667eea" stroke-width="3" stroke-linecap="round"/>
  <path d="M32 38V42" stroke="#667eea" stroke-width="2" stroke-linecap="round"/>
</svg>









